<?xml version="1.0" standalone="no"?>
<!DOCTYPE svg PUBLIC "-//W3C//DTD SVG 20010904//EN"
 "http://www.w3.org/TR/2001/REC-SVG-20010904/DTD/svg10.dtd">
<svg version="1.0" xmlns="http://www.w3.org/2000/svg"
 width="840.000000pt" height="840.000000pt" viewBox="0 0 840.000000 840.000000"
 preserveAspectRatio="xMidYMid meet">
<metadata>
Created by potrace 1.14, written by Peter Selinger 2001-2017
</metadata>
<g transform="translate(0.000000,840.000000) scale(0.100000,-0.100000)"
fill="#000000" stroke="none">
<path d="M1585 8371 c-11 -5 -29 -19 -40 -31 -20 -22 -20 -40 -25 -2509 l-5
-2486 -47 -61 c-187 -243 -326 -571 -385 -909 -24 -140 -24 -490 0 -630 74
-427 258 -798 547 -1099 557 -581 1394 -791 2160 -540 743 243 1273 860 1407
1639 24 140 24 490 0 630 -74 431 -257 797 -551 1103 -316 328 -702 532 -1162
613 -186 33 -502 33 -688 0 -372 -66 -689 -208 -973 -439 l-103 -82 0 528 0
528 428 107 c546 136 673 157 942 157 228 -1 422 -26 655 -85 169 -43 290 -89
505 -190 346 -163 555 -229 890 -281 89 -14 175 -18 380 -18 339 0 383 6 920
133 91 21 275 64 410 96 135 32 253 61 262 66 10 5 25 23 33 40 15 27 14 47
-4 232 -89 895 -88 1938 4 2816 12 113 12 139 0 167 -16 38 -41 54 -86 54 -17
0 -259 -54 -538 -119 -656 -154 -703 -162 -1001 -162 -200 0 -323 12 -500 47
-242 49 -409 107 -696 242 -93 44 -212 96 -265 116 -451 167 -937 214 -1417
136 -89 -15 -802 -185 -904 -216 -15 -4 -17 12 -20 175 -3 177 -3 181 -28 206
-28 27 -74 39 -105 26z m1706 -4438 c314 -113 588 -573 704 -1183 8 -47 18
-95 20 -107 5 -20 -3 -25 -92 -52 -281 -87 -473 -115 -783 -115 -310 0 -502
28 -783 115 -89 27 -97 32 -92 52 2 12 11 59 19 104 79 433 266 838 479 1041
56 52 146 114 194 133 109 44 234 48 334 12z m-690 -80 c-124 -150 -178 -233
-262 -408 -90 -188 -171 -444 -214 -674 -8 -47 -17 -86 -18 -88 -5 -5 -247
120 -317 163 l-65 41 -3 226 -2 227 62 63 c198 197 464 362 728 451 58 20 109
36 113 36 5 0 -5 -17 -22 -37z m1189 -5 c214 -74 462 -222 640 -381 104 -93
191 -192 288 -325 l62 -87 -37 -33 c-89 -79 -350 -240 -495 -306 l-77 -35 -7
37 c-16 96 -59 278 -91 382 -92 307 -212 536 -394 753 l-32 38 29 -7 c16 -4
67 -20 114 -36z m-2270 -794 c0 -8 -5 -12 -10 -9 -6 4 -8 11 -5 16 9 14 15 11
15 -7z m-45 -186 l44 -33 3 -528 3 -529 33 -29 c45 -40 84 -39 128 5 l34 34 0
454 0 455 183 -92 c164 -83 182 -95 180 -116 -40 -380 -25 -785 41 -1129 8
-41 12 -77 10 -79 -7 -7 -310 91 -448 146 -205 81 -406 181 -415 207 -20 50
-42 222 -48 356 -9 235 26 470 104 693 34 98 88 217 99 217 2 0 25 -15 49 -32z
m3414 -26 c72 -143 140 -393 162 -597 19 -176 -4 -513 -41 -611 -10 -26 -214
-128 -415 -207 -139 -55 -442 -153 -449 -146 -2 2 5 50 15 105 51 284 70 650
50 934 -7 91 -14 172 -16 180 -4 12 18 26 82 55 174 78 433 232 538 319 17 14
33 25 37 26 4 0 21 -26 37 -58z m-2347 -466 c219 -49 335 -60 603 -60 207 0
274 4 390 22 141 22 327 64 442 100 l62 19 8 -66 c15 -125 9 -604 -11 -756
-20 -159 -62 -385 -73 -396 -10 -9 -279 -54 -428 -71 -66 -8 -228 -12 -405
-12 -307 0 -427 10 -688 56 -112 19 -125 24 -133 46 -13 33 -55 283 -71 417
-14 123 -18 612 -5 716 l8 67 94 -29 c52 -15 145 -39 207 -53z m-1067 -1034
c160 -72 359 -144 530 -192 83 -22 156 -44 163 -48 8 -4 36 -74 63 -157 81
-247 209 -487 343 -645 30 -35 54 -66 52 -67 -6 -7 -145 41 -250 86 -346 147
-652 406 -861 730 -43 66 -175 328 -175 346 0 8 -7 11 135 -53z m3465 52 c0
-18 -134 -281 -175 -345 -209 -324 -515 -584 -861 -730 -105 -45 -244 -93
-250 -86 -2 1 22 32 52 67 134 158 262 398 343 645 27 83 55 153 63 157 7 4
81 26 163 48 177 50 376 122 535 195 120 55 130 59 130 49z m-2370 -363 c422
-61 867 -52 1312 25 l38 7 -14 -44 c-113 -356 -301 -646 -501 -775 -94 -60
-156 -78 -265 -78 -109 0 -171 18 -265 78 -200 129 -388 419 -501 775 l-14 44
38 -7 c20 -3 98 -15 172 -25z"/>
</g>
</svg>
